HIERARCHY
ROOT hip
{
	OFFSET 0.000000 0.000000 0.000000 
	CHANNELS 6 Xposition Yposition Zposition Xrotation Zrotation Yrotation
	JOINT abdomen
	{
		OFFSET 0.000000 3.402643 0.000000 
		CHANNELS 3 Xrotation Zrotation Yrotation
		JOINT chest
		{
			OFFSET 0.000000 8.438565 -0.680529 
			CHANNELS 3 Xrotation Zrotation Yrotation
			JOINT neck
			{
				OFFSET 0.000000 10.207942 -0.272212 
				CHANNELS 3 Xrotation Zrotation Yrotation
				JOINT head
				{
					OFFSET 0.000000 3.130431 0.000000 
					CHANNELS 3 Xrotation Zrotation Yrotation
					End Site
					{
						OFFSET 0.000000 3.130435 0.000000 
					}
				}
			}
			JOINT lCollar
			{
				OFFSET 3.470700 6.669187 -0.816635 
				CHANNELS 3 Yrotation Zrotation Xrotation
				JOINT lShldr
				{
					OFFSET 3.198488 0.000000 0.000000 
					CHANNELS 3 Zrotation Yrotation Xrotation
					JOINT lForeArm
					{
						OFFSET 10.139888 0.000000 0.000000 
						CHANNELS 3 Yrotation Zrotation Xrotation
						JOINT lHand
						{
							OFFSET 8.370511 0.000000 0.000000 
							CHANNELS 3 Zrotation Yrotation Xrotation
							End Site
							{
								OFFSET 4.083176 0.000000 0.000000 
							}
						}
					}
				}
			}
			JOINT rCollar
			{
				OFFSET -3.470700 6.669187 -0.816635 
				CHANNELS 3 Yrotation Zrotation Xrotation
				JOINT rShldr
				{
					OFFSET -3.198488 0.000000 0.000000 
					CHANNELS 3 Zrotation Yrotation Xrotation
					JOINT rForeArm
					{
						OFFSET -10.139888 0.000000 0.000000 
						CHANNELS 3 Yrotation Zrotation Xrotation
						JOINT rHand
						{
							OFFSET -8.370511 0.000000 0.000000 
							CHANNELS 3 Zrotation Yrotation Xrotation
							End Site
							{
								OFFSET -4.083176 0.000000 0.000000 
							}
						}
					}
				}
			}
		}
	}
	JOINT lThigh
	{
		OFFSET 5.308129 -1.633274 1.361059 
		CHANNELS 3 Xrotation Zrotation Yrotation
		JOINT lShin
		{
			OFFSET -2.041588 -20.007561 0.000000 
			CHANNELS 3 Xrotation Zrotation Yrotation
			JOINT lFoot
			{
				OFFSET 0.000000 -19.190928 -1.224953 
				CHANNELS 3 Xrotation Yrotation Zrotation
				End Site
				{
					OFFSET 0.000000 -2.449906 4.627600 
				}
			}
		}
	}
	JOINT rThigh
	{
		OFFSET -5.308129 -1.633274 1.361059 
		CHANNELS 3 Xrotation Zrotation Yrotation
		JOINT rShin
		{
			OFFSET 2.041588 -20.007561 0.000000 
			CHANNELS 3 Xrotation Zrotation Yrotation
			JOINT rFoot
			{
				OFFSET 0.000000 -19.190928 -1.224953 
				CHANNELS 3 Xrotation Yrotation Zrotation
				End Site
				{
					OFFSET 0.000000 -2.449906 4.627600 
				}
			}
		}
	}
}
MOTION
Frames: 13
Frame Time: 0.011111
45.889172 50.722908 -3.331234 -3.485240 -2.476108 90.464378 16.527855 0.265109 -0.277363 -18.268356 1.583871 0.197655 -8.238230 3.008608 1.079769 10.529352 0.288008 2.096425 2.785591 -10.422155 1.651026 -68.884048 -34.721191 -17.776785 -35.201130 2.866991 2.781491 8.524705 12.647240 -76.155655 2.149531 12.114442 0.054873 60.546082 37.001572 26.939186 49.766991 -7.650387 8.063061 -8.534408 -12.637552 45.814308 -26.196871 10.954819 6.558946 52.051430 -3.595724 -7.417650 -22.518902 -9.714881 -6.705376 2.313554 1.718227 3.261228 25.924997 5.527377 4.320951 -27.344275 -2.098461 0.977037 
46.548557 50.723251 -3.333952 -3.812064 -2.445518 90.169907 16.669157 0.499462 0.290669 -18.259876 1.268013 0.326732 -7.979962 3.043773 1.025518 10.180311 0.490026 1.984418 2.785591 -10.422155 1.651026 -68.628349 -33.906364 -23.755159 -34.634758 2.635654 2.602530 8.524705 12.647240 -80.970100 2.149531 12.114442 0.054873 60.447098 37.759838 27.470682 50.938141 -7.917829 8.538764 -8.534408 -12.637552 46.986191 -27.143379 11.208127 6.331559 49.607109 -3.821826 -7.169133 -22.898140 -9.046483 -6.418949 3.986236 1.998647 3.279446 24.310572 5.605494 4.104809 -26.993563 -1.832909 1.152705 
47.210995 50.724270 -3.355705 -4.357025 -2.427218 89.859352 16.782936 1.078955 0.898318 -18.153875 0.903049 0.436469 -7.792255 3.142052 0.985071 9.779807 0.384806 1.883986 2.785591 -10.422155 1.651026 -68.477364 -33.235699 -28.719908 -34.237484 2.464412 2.479916 8.524705 12.647240 -84.602921 2.149531 12.114442 0.054873 60.266209 38.680370 28.133341 51.953766 -8.125340 8.948188 -8.534408 -12.637552 48.118996 -28.088011 11.675407 5.972646 47.050606 -4.075473 -6.885508 -23.124088 -8.557002 -6.212630 5.732208 2.461079 3.234353 22.591082 5.669035 3.865137 -26.703791 -1.359608 1.431665 
47.887028 50.724606 -3.379497 -4.735218 -2.416584 89.418518 16.915668 1.461071 1.473563 -17.968988 0.731863 0.561125 -7.937933 3.284204 0.918430 9.660315 -0.163960 1.725853 2.785591 -10.422155 1.651026 -68.546059 -32.589382 -33.738319 -33.979790 2.356532 2.399270 8.524705 12.647240 -88.167374 2.149531 12.114442 0.054873 59.967804 39.604839 28.605337 52.973694 -8.328880 9.381875 -8.534408 -12.637552 48.958839 -28.871401 11.979550 5.683175 44.460907 -4.306404 -6.591252 -23.405443 -7.911025 -5.944226 7.450509 2.675692 3.219134 20.814741 5.756553 3.613203 -26.444555 -0.671652 1.783126 
48.574959 50.713390 -3.398871 -4.851827 -2.474719 88.981903 16.946142 1.505309 1.979873 -17.803349 0.638195 0.687221 -8.105583 3.345984 0.908675 9.687971 -0.429705 1.718516 2.785591 -10.422155 1.651026 -68.483574 -31.867884 -38.715710 -33.682339 2.225830 2.310480 8.524705 12.647240 -91.526749 2.149531 12.114442 0.054873 59.639755 40.518097 28.868290 53.921223 -8.498126 9.775074 -8.534408 -12.637552 49.554546 -29.540018 12.021121 5.388466 41.817039 -4.520677 -6.307198 -23.912701 -6.997011 -5.542892 9.045316 2.625599 2.955012 18.990326 5.812337 3.389006 -26.122374 -0.107622 2.080813 
49.264935 50.683483 -3.419264 -4.889948 -2.639014 88.572258 16.776667 1.416250 2.461502 -17.598936 0.474221 0.830160 -8.487112 2.758728 0.880041 10.213464 0.602802 1.731755 2.785591 -10.422155 1.651026 -68.210297 -31.053434 -43.638794 -33.454494 2.123070 2.239008 8.524705 12.647240 -94.710342 2.149531 12.114442 0.054873 59.369808 41.404984 29.152357 54.745380 -8.639509 10.118591 -8.534408 -12.637552 50.140480 -30.240181 11.970682 5.012217 39.208172 -4.718787 -6.002557 -24.908016 -6.055224 -5.095282 10.591385 2.499645 2.761148 17.047159 5.861903 3.123153 -25.847424 0.424353 2.376349 
49.952862 50.654594 -3.435238 -5.068313 -2.809671 88.075508 16.601316 1.441598 3.159733 -17.394863 0.229210 1.017574 -8.073587 3.311346 0.878350 9.270385 -0.130537 1.676781 2.785591 -10.422155 1.651026 -67.920197 -29.985350 -48.434834 -33.444736 2.123496 2.238361 8.524705 12.647240 -97.786514 2.149531 12.114442 0.054873 59.111065 42.253345 29.259533 55.516510 -8.757717 10.447502 -8.534408 -12.637552 50.492039 -30.973709 12.137341 4.590545 36.732121 -4.903890 -5.690429 -24.841455 -4.448139 -4.322492 12.199009 2.489564 2.826110 14.955201 5.900488 2.822387 -25.422489 1.117103 2.726020 
50.635700 50.637600 -3.446794 -5.428039 -2.951772 87.470802 16.572685 1.699491 3.959284 -17.366524 -0.004082 1.213442 -8.125975 3.070060 0.836706 9.215083 0.167668 1.585970 2.785591 -10.422155 1.651026 -67.691360 -28.945187 -53.312061 -33.365673 2.086121 2.206360 8.524705 12.647240 -100.852921 2.149531 12.114442 0.054873 58.848232 43.023258 29.271868 56.279278 -8.870043 10.778583 -8.534408 -12.637552 50.599464 -31.703194 12.565767 4.030965 34.398735 -5.065590 -5.406792 -25.206263 -3.028934 -3.649665 14.009166 2.597227 3.090303 12.593130 5.962389 2.469096 -24.701609 1.980690 3.171232 
51.320904 50.620266 -3.465149 -5.581045 -3.182127 86.820335 16.347475 1.753105 4.569435 -17.376934 -0.156969 1.373373 -7.882690 3.079778 0.873884 9.038173 0.085927 1.631705 2.785591 -10.422155 1.651026 -67.413902 -27.906090 -58.380535 -33.217045 2.020066 2.168137 8.524705 12.647240 -103.987686 2.149531 12.114442 0.054873 58.609409 43.725906 29.589127 56.946930 -8.957691 11.061406 -8.534408 -12.637552 50.843609 -32.459957 12.812044 3.381326 32.308937 -5.196460 -5.151191 -25.675840 -1.501503 -2.895459 16.009615 2.402064 3.840446 9.529220 6.003215 2.058502 -23.521921 2.602995 3.530797 
52.016659 50.599190 -3.490640 -5.512859 -3.485426 86.159271 15.790233 1.502139 5.133680 -17.348118 -0.252704 1.545310 -7.229417 3.076758 0.803199 8.855252 0.118552 1.409203 2.785591 -10.422155 1.651026 -67.057564 -26.487734 -63.380959 -33.197338 2.012716 2.161538 8.524705 12.647240 -107.161514 2.149531 12.114442 0.054873 58.421490 44.186413 29.964781 57.519161 -9.026204 11.310493 -8.534408 -12.637552 51.175640 -33.288708 12.850617 2.471663 30.493752 -5.303589 -4.910685 -26.017691 0.243518 -2.046404 18.700766 1.885260 4.580119 4.839388 5.989563 1.381483 -21.406345 3.334429 3.897311 
52.716827 50.564861 -3.502875 -5.583648 -3.654872 85.535667 15.641997 1.447895 5.606080 -16.987238 -0.308397 1.688152 -7.325410 3.112214 0.757669 8.532598 -0.074760 1.331378 2.785591 -10.422155 1.651026 -66.907227 -25.690016 -68.529282 -33.237011 2.026824 2.164997 8.524705 12.647240 -110.423233 2.149531 12.114442 0.054873 58.163452 45.250416 30.272579 58.083000 -9.094419 11.560632 -8.534408 -12.637552 51.566261 -34.185829 13.035628 0.912045 28.962915 -5.391587 -4.727430 -26.549397 1.954966 -1.191375 21.622143 1.524034 5.339735 -0.105449 5.941248 0.703348 -19.172640 3.677454 4.050451 
53.398979 50.522713 -3.506275 -5.779590 -3.728762 84.996658 15.669390 1.456457 6.097227 -16.870522 -0.386876 1.820686 -7.455795 3.339144 0.742478 8.384464 -0.385455 1.313196 2.785591 -10.422155 1.651026 -66.533394 -25.024155 -73.604836 -33.177448 1.997187 2.149604 8.524705 12.647240 -113.880264 2.149531 12.114442 0.054873 58.041027 46.076504 30.373594 58.678955 -9.159902 11.824602 -8.534408 -12.637552 51.888531 -35.041515 13.288193 -1.122534 27.700424 -5.454813 -4.571126 -27.564260 3.349041 -0.353655 22.350325 1.504569 5.837816 -0.105445 5.941246 0.703348 -19.369120 3.619513 4.014930 
54.069233 50.482952 -3.523609 -5.879787 -3.809132 84.467880 15.683208 1.395452 6.596387 -16.880714 -0.461570 1.953934 -7.458021 3.467538 0.745372 8.324959 -0.599669 1.307244 2.785591 -10.422155 1.651026 -65.970772 -24.684664 -78.626572 -33.128281 1.982868 2.135815 8.524705 12.647240 -117.600967 2.149531 12.114442 0.054873 57.886189 46.734589 30.413387 59.167503 -9.204670 12.035589 -8.534408 -12.637552 52.054546 -35.853271 13.415864 -3.407537 26.706591 -5.503924 -4.434522 -26.864941 5.620452 0.536971 22.981546 1.348229 6.281134 -0.106470 5.940863 0.683859 -19.457787 3.914798 4.148594 
